<svg xmlns="http://www.w3.org/2000/svg" height="800" width="1200" viewBox="-30 -17.948 260.002 107.689">
    <path fill="#d03027" d="M135.736 51.922c-.011.01-.022.01-.022.022-8.52 6.03-18.607 12.363-29.46 19.013l-.428.248a.324.324 0 0 0 .372.53l.36-.192c9.208-4.801 19.779-10.504 30.418-16.353.056-.034.113-.068.169-.09a13.495 13.495 0 0 1-1.409-3.178zm55.9-45.25C178.212-8.136 91.827 5.185 55.098 13.21l-.856.18a.318.318 0 0 0-.26.372c.035.18.204.293.373.26l.845-.17c30.429-5.42 93.721-12.926 107.335.575 4.159 4.125 3.167 9.422-1.656 15.688 2.592 1.668 4.44 4.294 5.274 7.574 18.82-12.488 31.454-24.423 25.481-31.016z"/>
    <g fill="#004977">
        <path d="M141.168 48.033c.17 5.207 3.471 9.478 7.765 9.478 8.329 0 11.879-10.233 11.631-17.062-.18-5.218-3.561-9.478-7.855-9.478-7.157-.012-11.789 10.176-11.54 17.062zm-4.395-.281c-.304-8.892 6.66-17.987 16.781-17.987 6.762 0 11.191 4.508 11.44 11.416.326 9.377-6.188 17.987-16.77 17.987-6.785 0-11.214-4.497-11.45-11.416zm-95.848-2.345c-.36.136-.823.271-1.409.395-.574.135-1.634.315-3.167.563-1.059.17-1.792.384-2.209.688-.394.293-.63.642-.698 1.082-.08.462.067.822.462 1.116.406.281 1.082.428 2.04.428.721 0 1.42-.113 2.096-.338.687-.226 1.273-.53 1.713-.913.327-.282.563-.643.744-1.082.112-.293.259-.936.428-1.939zm8.79-5.465c-.033.811-.18 1.532-.394 2.783l-1.487 8.351c-.124.744.146 1.319.834 1.725l-.045.326-8.52-.01-.08-2.12a17.144 17.144 0 0 1-4.09 1.747c-1.353.35-2.446.496-4.08.496-2.75 0-4.328-.282-5.421-1.24-1.105-.98-1.645-1.634-1.59-2.986.046-.778.452-1.78 1.026-2.48.586-.71 1.398-1.171 2.266-1.588.879-.417 1.916-.722 3.415-.958 1.51-.248 3.606-.485 6.412-.722 1.477-.124 2.378-.462 2.795-.63.586-.226.823-.485.902-.959.157-.856-.113-1.352-1.263-1.578-3.065-.608-8.824.395-11.788 1.127l1.612-4.35c3.91-.575 7.573-.935 11.439-.935 6.164 0 8.125 1.747 8.058 4zM74.42 53.115l2.953-16.69h8.16l-2.953 16.69zm3.404-20.556c.248-1.375 2.412-2.48 4.824-2.48 2.423 0 4.192 1.116 3.955 2.48-.259 1.375-2.411 2.49-4.846 2.49-2.412 0-4.17-1.115-3.933-2.49zm36.68 12.881c-.371.124-.845.26-1.42.395-.574.135-1.634.304-3.166.552-1.048.169-1.792.383-2.198.688-.394.281-.62.642-.71 1.07-.09.462.079.834.462 1.116.417.282 1.093.417 2.051.417.71 0 1.409-.102 2.096-.316.7-.236 1.274-.53 1.725-.913.315-.281.552-.653.721-1.082.113-.281.26-.924.44-1.927zm8.791-5.477c-.034.823-.18 1.544-.406 2.784l-1.476 8.362c-.124.733.147 1.319.834 1.724l-.045.293-8.52.012-.068-2.13a16.46 16.46 0 0 1-4.09 1.746c-1.353.361-2.446.508-4.103.508-2.75 0-4.316-.27-5.41-1.24-1.115-.992-1.645-1.634-1.589-2.987.034-.789.44-1.792 1.026-2.479.586-.721 1.397-1.172 2.276-1.589.88-.417 1.916-.721 3.404-.97 1.51-.236 3.618-.484 6.424-.72 1.465-.125 2.367-.451 2.784-.62.597-.226.822-.485.912-.97.147-.845-.112-1.34-1.25-1.577-3.089-.609-8.825.394-11.789 1.127l1.6-4.35c3.922-.575 7.574-.936 11.44-.936 6.141.011 8.102 1.77 8.046 4.012zm-99.556 7.157c-2.66.53-4.147.732-6.773.732-3.9 0-6.999-1.938-6.83-5.488.124-2.367 2.92-7.348 10.03-7.348 2.243 0 3.99.394 6.346 1.735l1.037-5.793c-3.201-1.206-5.32-1.386-8.07-1.363-9.331.101-18.28 4.339-19.395 12.96-1.127 8.757 9.568 10.955 14.313 10.932 2.738-.011 5.59-.124 8.25-.394zm66.29-10.786.586-3.403 8.532-1.86-.913 5.252h4.181l-.789 3.358-4.057-.01L95.1 53.093s-8.216-.057-8.25 0l2.457-13.39H86.22l.631-3.38h3.179zm33.247 16.78 4.181-23.283 8.092.225-3.967 23.047zM63.623 40.337c-1.07 0-2.04.327-2.896.97-.857.653-1.398 1.6-1.612 2.85-.26 1.454-.102 2.503.473 3.145.586.642 1.42.97 2.525.97.744 0 1.51-.136 2.073-.418.7-.372 1.184-.755 1.6-1.375.452-.642.745-1.364.902-2.198.237-1.318.034-2.299-.574-2.952-.598-.654-1.42-.992-2.491-.992zM48.769 58.875l3.978-22.36h7.168l-.552 2.852c.62-.857 1.611-1.556 2.986-2.12 1.387-.563 2.942-.98 4.632-.98 1.871 0 3.02.102 4.418.823 1.386.733 2.367 1.792 2.885 3.167.541 1.352.654 2.885.36 4.542-.484 2.761-1.825 4.925-4.034 6.525-2.186 1.6-4.158 2.018-6.965 2.029-.991 0-1.825-.102-2.513-.27-.676-.181-1.217-.395-1.623-.654-.394-.26-.811-.632-1.34-1.218l-1.33 7.664zm148.107-16.488c-.045-1.341-.721-2.254-2.107-2.254-3.348 0-6.909 6.56-7.518 9.197 5.489.01 9.76-3.257 9.625-6.943zm.721 10.278.643.44c-1.634 3.325-4.96 5.996-8.859 5.996-3.189 0-5.815-2.13-5.95-6.12-.26-7.156 6.446-13.794 11.935-13.794 2.355 0 4.542 1.025 4.632 3.56.203 5.692-7.788 7.428-13.05 7.552-.17.597-.238 1.194-.204 2.096.09 2.355 1.51 4.339 4.463 4.339 2.547 0 5.094-2.051 6.39-4.069z"/>
        <path d="M164.87 42.207c.563-.08 1.476-.18 1.87-.18.597 0 1.16.112 1.195.71.01.349-.62 2.885-.755 3.47l-1.274 5.613c-.518 2.3-1.07 4.7-1.567 6.604h3.269l1.837-8.892c5.601-5.838 7.765-7.742 9.083-7.742.598 0 1.003.315 1.037 1.025.034 1.026-.608 3.359-.822 4.035l-1.871 6.48c-.429 1.454-.744 2.773-.71 3.708.056 1.42.913 2.051 2.197 2.051 2.39 0 4.125-2.49 5.635-4.936l-.44-.8c-.608.98-2.028 3.133-3.144 3.133-.349 0-.687-.237-.698-.823-.034-.755.281-1.893.507-2.648l2.085-7.596c.563-2.097.823-3.438.811-4.159-.056-1.42-.879-2.085-2.152-2.085-2.153 0-5.004 1.578-11.056 8.532h-.09l.766-3.393c.417-1.86.823-3.798 1.206-5.139-2.096.755-5.094 1.6-6.942 1.961z"/>
    </g>
</svg>
