<svg xmlns="http://www.w3.org/2000/svg" height="800" width="1200" version="1.0" viewBox="-44.365 -13.742 384.495 82.451">
    <path d="M260.45 0a1.94 1.94 0 0 0-1.941 1.94v13.606h35.941L278.082.001 260.45 0m35.315 19.663a1.934 1.934 0 0 0-1.941-1.94H280.22v35.943l15.538-16.375.006-17.628M276.1 54.967c1.07 0 1.939-.87 1.939-1.943V39.422h-35.943l16.37 15.543 17.634.002m-35.318-19.66c0 1.073.87 1.947 1.944 1.947h13.6V1.309l-15.541 16.37-.003 17.628" fill="#117aca"/>
    <path d="M76.041 6.561V23.16H52.916V6.561l-8.422-.007v41.852h8.422v-17.98h23.125v17.98h8.437V6.561H76.04m112.047 0v41.835h36.95l-4.68-7.365h-23.824V30.426h23.07v-7.093h-23.07v-9.58h23.785l4.585-7.192h-36.816m-174.902-.01C4.425 6.551 0 11.877 0 19.628V35.25c0 8.969 5.702 13.156 13.143 13.156l26.425-.003-4.9-7.65H14.776c-4.226 0-6.068-1.527-6.068-6.257V20.322c0-4.572 1.55-6.356 6.18-6.356h19.99l4.703-7.415H13.186m137.942-.01c-5.06 0-10.247 3.042-10.247 10.864v2.01c0 8.155 4.99 11.266 9.983 11.287h17.523c1.82 0 3.3.303 3.3 3.38l-.003 3.553c-.046 2.764-1.425 3.396-3.359 3.396h-23.053l-4.723 7.365h28.319c6.829 0 11.465-3.397 11.465-11.245v-2.883c0-7.588-4.308-11.173-10.986-11.173h-16.733c-1.855 0-3.147-.506-3.147-3.254v-2.893c0-2.34.886-3.194 3.047-3.194l21.955-.009 4.589-7.214-27.93.01m-42.18.02L89.103 48.404h9.379l3.864-8.642h21.564l3.853 8.642h9.42L117.294 6.56zm4.16 8.688 7.626 17.391h-15.202l7.577-17.391" fill="#211e1e"/>
</svg>
