<svg xmlns="http://www.w3.org/2000/svg" height="800" width="1200" viewBox="-3.64 -6.066 31.544 36.397">
    <path d="M0 24.265h24.265V0H0z" fill="#dd1e25"/>
    <path d="M20.912 14.93c0-.976-.402-1.543-1.146-1.543-.744 0-1.146.567-1.146 1.542 0 .98.397 1.543 1.146 1.543.749 0 1.146-.562 1.146-1.543m.903 0c0 1.201-.854 2.044-2.05 2.044-1.19 0-2.048-.843-2.048-2.044 0-1.195.864-2.043 2.049-2.043 1.19 0 2.05.848 2.05 2.043m-6.193.177c0 .11.016.181.06.27h.656v.974a1.684 1.684 0 0 1-.65.127c-.793 0-1.206-.567-1.206-1.548 0-.98.413-1.548 1.162-1.548.501 0 .794.248.964.678l.06.154h.398v-.986a3.227 3.227 0 0 0-1.46-.342c-1.212 0-2.028.81-2.028 2.05 0 1.245.794 2.038 2.028 2.038.49 0 .997-.138 1.542-.408v-1.718h-1.466a.514.514 0 0 0-.06.259m-3.35-1.003c0-.402-.247-.617-.743-.617h-.65v1.24h.65c.49 0 .744-.227.744-.623M7.96 15.226l-.54-1.459-.54 1.46zm5.382 1.201c.033.061.05.133.05.226a.453.453 0 0 1-.05.226 3.298 3.298 0 0 1-.43.028c-.534 0-.793-.22-.853-.733l-.022-.193c-.067-.556-.248-.77-.854-.77h-.303v1.172h.523v.48H7.938v-.48h.452l-.254-.688H6.704l-.253.688h.462v.48h-1.46v-.48h.386l1.35-3.377h.732L9.3 16.383h.76v-2.897H9.59v-.48h2.214c.788 0 1.3.392 1.3 1.02 0 .622-.512.952-1.008.975v.016c.501.04.705.32.755.755l.022.204c.033.32.1.463.352.463a.665.665 0 0 0 .116-.012m-8.396-2.941c.37 0 .496.16.617.623l.039.148h.396v-1.25H2.677v.479h.468v2.897h-.468v.48h1.84v-.48h-.551V15.26H5.1a.574.574 0 0 0 .06-.276.543.543 0 0 0-.06-.264H3.966v-1.234zm16.737-3.543c0-.605-.37-1.024-1.063-1.184l-.7-.16c-.407-.093-.578-.253-.578-.523 0-.325.259-.529.765-.529.507 0 .805.182.92.612l.05.187h.397v-.953a3.088 3.088 0 0 0-1.4-.342c-.942 0-1.547.452-1.547 1.18 0 .56.352.974 1.03 1.123l.7.154c.445.1.61.275.61.568 0 .358-.27.556-.81.556-.61 0-.925-.242-1.062-.705l-.072-.237h-.396v1.08c.5.248.98.358 1.625.358.925 0 1.53-.463 1.53-1.185m-3.525-.242h-.397l-.044.193c-.11.49-.264.645-.628.645h-.766V7.64h.524v-.48h-1.812v.48h.468v2.897h-.468v.48h3.123zm-3.47 0h-.397l-.044.193c-.11.49-.265.645-.628.645h-.766V7.64h.523v-.48h-1.812v.48h.468v2.897h-.468v.48h3.123zM3.475 11.017l-.97-3.376h-.44v-.48H3.86v.48h-.518l.645 2.325.771-2.804h.793L6.34 9.97l.633-2.33h-.54v-.48h4.673v1.25h-.397l-.039-.148c-.12-.462-.248-.622-.617-.622H9.14v1.162h1.107c.044.094.06.16.06.264 0 .11-.016.182-.06.276H9.14v1.196h.953c.358 0 .517-.155.628-.645l.044-.193h.397v1.317H7.85v-.48h.468V7.642h-.76l-.964 3.376h-.766L5.046 8.22l-.805 2.799z" fill="#fff"/>
</svg>
